#N canvas 355 53 816 769 12;
#X obj 154 -15 tgl 15 0 empty empty empty 17 7 0 10 -262144 -1 -1 0
1;
#X floatatom 286 126 5 0 0 0 - - -;
#X floatatom 247 -18 5 0 0 0 - - -;
#X obj 285 13 / 60;
#X obj 299 97 /;
#X msg 268 67 1000;
#X obj 285 38 t b f;
#X text 245 -36 BPM;
#X obj 168 293 int;
#X obj 217 295 + 1;
#X obj 173 348 %;
#X floatatom 60 -13 5 0 0 0 - - -;
#X floatatom 173 376 5 0 0 0 - - -;
#X text 53 -35 G!;
#X text 146 -38 POWER;
#X obj 173 398 moses 1;
#X obj 311 430 bng 15 250 50 0 empty empty empty 17 7 0 10 -262144
-1 -1;
#X text 331 126 ms;
#X obj 223 174 /;
#X floatatom 223 199 5 0 0 0 - - -;
#X obj 67 102 t b f f;
#X obj 290 625 dac~;
#X msg 172 449 1000;
#X obj 165 479 metro_blip;
#X obj 311 475 metro_blip;
#X msg 311 450 500;
#X obj 172 429 bng 15 250 50 0 empty empty empty 17 7 0 10 -262144
-1 -1;
#X obj 168 242 metro 1000;
#X obj 60 9 v g;
#X obj 59 52 bng 15 250 50 0 empty empty empty 17 7 0 10 -262144 -1
-1;
#X obj 59 72 v g;
#X obj 82 411 t b b b;
#X msg 92 261 0;
#X obj 108 12 bng 15 250 50 0 empty empty empty 17 7 0 10 -262144 -1
-1;
#X connect 0 0 27 0;
#X connect 1 0 18 0;
#X connect 2 0 3 0;
#X connect 3 0 6 0;
#X connect 4 0 1 0;
#X connect 5 0 4 0;
#X connect 6 0 5 0;
#X connect 6 1 4 1;
#X connect 8 0 9 0;
#X connect 8 0 10 0;
#X connect 9 0 8 1;
#X connect 10 0 12 0;
#X connect 11 0 28 0;
#X connect 11 0 33 0;
#X connect 12 0 15 0;
#X connect 15 0 31 0;
#X connect 15 1 16 0;
#X connect 16 0 25 0;
#X connect 18 0 19 0;
#X connect 18 0 27 1;
#X connect 20 0 18 0;
#X connect 20 1 18 1;
#X connect 20 2 10 1;
#X connect 22 0 23 0;
#X connect 23 0 21 0;
#X connect 23 0 21 1;
#X connect 24 0 21 0;
#X connect 24 0 21 1;
#X connect 25 0 24 0;
#X connect 26 0 22 0;
#X connect 27 0 8 0;
#X connect 29 0 30 0;
#X connect 30 0 20 0;
#X connect 31 0 29 0;
#X connect 31 1 32 0;
#X connect 31 2 26 0;
#X connect 32 0 8 0;
