#N canvas 0 22 450 300 12;
#X obj 248 204 *~;
#X obj 290 171 line~;
#X msg 303 132 0 10;
#X msg 303 104 0.5 10;
#X obj 56 85 delay 50;
#X obj 185 170 osc~ 1000;
#X obj 124 55 t b b f;
#X obj 125 19 inlet;
#X obj 248 242 outlet~;
#X connect 0 0 8 0;
#X connect 1 0 0 1;
#X connect 2 0 1 0;
#X connect 3 0 1 0;
#X connect 4 0 2 0;
#X connect 5 0 0 0;
#X connect 6 0 4 0;
#X connect 6 1 3 0;
#X connect 6 2 5 0;
#X connect 7 0 6 0;
